<svg width="94" height="98" viewBox="0 0 94 98" fill="none" xmlns="http://www.w3.org/2000/svg">
<path d="M93.3063 39.4359C92.2575 36.6182 90.6714 35.6635 88.1088 35.1913C87.246 35.0304 86.5847 34.444 85.6754 34.4907C84.7506 34.5374 83.9034 35.02 83.0354 35.295C79.2587 36.4782 79.982 38.0349 78.1376 39.576C75.2341 42.0045 72.8524 41.1483 72.3254 39.6539C71.5298 37.3707 72.0464 35.046 70.5481 32.8925C68.5384 29.9918 65.0924 29.8154 63.9196 31.1023C62.783 32.3424 64.3794 33.7435 64.9994 34.8332C66.0688 36.7272 67.1538 40.6035 65.2629 40.6398C57.6424 40.7955 48.8181 41.6776 48.8285 39.4307C48.8336 37.6353 48.2292 35.7828 50.4559 35.788C51.7113 35.788 54.496 36.8829 55.4105 35.7154C55.9426 35.0356 55.6792 34.1016 54.3462 33.9459C53.2923 33.8213 47.8882 34.8747 48.8956 32.384C49.6706 30.464 56.17 32.7368 57.1154 30.9103C57.3686 30.4225 57.1361 29.3276 56.8416 28.9073C55.6017 27.1326 51.2154 28.3001 49.03 27.6826C47.3302 27.2001 48.1258 24.4706 47.9812 23.137C47.8004 21.4765 47.6609 19.8108 47.7125 18.1399C47.7384 17.3045 46.8756 13.5943 48.41 14.3312C49.5259 14.8656 50.3061 18.2541 51.9283 17.7975C53.6229 17.3253 49.2211 13.5372 50.2337 12.1932C51.1637 10.9634 53.5764 12.131 54.7234 11.5913C55.7463 11.1139 55.8497 9.24066 54.4134 9.3652C53.1528 9.47417 51.8663 9.26142 50.7039 8.75289C48.2705 7.67875 53.1838 5.32809 52.9926 4.06196C52.5948 1.41034 49.3554 5.14128 48.3118 5.18798C45.8629 5.29695 47.6402 1.01597 45.9043 0.216847C45.3153 -0.0529857 44.6385 -0.0166602 43.9927 0.0404197C42.8767 0.139012 42.6339 0.367328 42.6856 2.59863C42.7011 3.28878 43.0731 4.35255 42.3549 4.79362C41.4921 5.3281 39.8647 3.97375 39.2912 3.44965C38.0513 2.31843 37.1213 4.03601 37.886 5.16723C38.4026 5.93522 39.8802 6.31921 39.8492 7.43486C39.8027 9.10574 36.9405 7.76696 36.1604 8.0368C35.4681 8.27549 35.0031 9.13169 35.6799 9.76475C36.2017 10.2473 37.1937 9.7959 37.8136 9.92043C38.4853 10.0554 39.4462 10.3563 39.7097 11.0932C40.3917 12.9768 36.4652 13.2622 37.0284 14.8812C37.2247 15.452 37.9583 15.7426 38.5214 15.5246C39.4256 15.1718 42.0811 12.8782 42.2619 14.9071C42.4686 17.2682 42.5254 19.6396 42.5409 22.0058C42.5771 28.9228 44.53 29.0578 36.1449 29.0785C34.7396 29.0785 33.7735 30.6508 35.3699 31.2164C37.2453 31.8806 39.7769 31.5122 41.6885 31.3046C42.9336 31.1697 42.6959 33.1468 41.9468 33.6345C40.4899 34.5634 36.8889 32.0052 36.925 34.5686C36.956 36.9815 39.9061 35.8606 41.3526 35.9229C42.5513 35.9748 42.8509 36.6338 42.9749 37.6976C43.1661 39.3218 42.6288 39.9652 40.929 39.9029C32.6111 39.5864 31.0766 40.0846 30.3172 37.5575C29.8832 36.1149 30.126 29.8672 23.8901 25.8457C23.0428 25.3009 17.5148 22.1044 17.4579 24.8598C17.4321 26.2972 20.4751 26.9977 21.2501 27.9213C22.7897 29.7427 25.0474 33.0326 25.4711 35.3832C26.3028 39.986 23.4871 38.7613 21.8907 38.7561C9.9356 38.7198 23.265 32.576 16.621 30.6819C15.7633 30.4381 15.474 30.7442 15.1382 31.4863C14.7662 32.3061 14.0171 34.5219 13.0045 34.7502C10.1939 35.3729 13.082 26.842 7.88453 29.7842C7.45572 30.0281 7.29039 30.1994 7.26456 30.7338C7.20773 32.0778 8.56133 35.4663 6.90291 34.8384C6.3966 34.6464 5.93679 34.169 5.44081 33.9199C4.48502 33.4374 0.723858 31.9169 2.06196 34.3351C2.6251 35.3469 4.14403 36.3796 4.40752 37.4952C4.66584 38.5849 3.11592 37.7547 2.38745 37.8481C1.00801 38.0245 -0.24743 38.3774 0.0418896 40.0482C0.5327 42.84 4.07687 40.2714 5.52864 41.1691C5.80762 41.3403 6.12794 41.8333 6.02978 42.1861C5.89545 42.6947 5.06882 42.8244 4.60901 43.0579C3.49306 43.6183 1.48332 44.7547 2.19629 46.3478C2.97125 48.0809 5.38398 46.4049 6.3501 45.7614C7.00624 45.3203 8.10668 44.1009 8.87132 44.9363C10.6796 46.9238 5.97295 50.4835 11.2324 51.1788C11.9143 51.267 12.4052 51.1736 12.8081 50.608C13.6399 49.4457 12.1313 43.0994 16.187 47.1106C18.9407 49.8348 20.4906 46.2596 19.044 44.5627C18.7547 44.2203 15.9287 42.7777 17.0394 42.2017C17.2668 42.0824 17.5354 42.1135 17.7886 42.1498C19.3023 42.347 20.8109 42.5442 22.3247 42.7466C23.513 42.9022 25.8275 42.1654 24.9389 46.0157C24.5153 47.8526 21.5394 52.8756 20.6301 53.7267C20.0721 54.2508 19.3643 54.5777 18.7805 55.0758C16.8948 56.6896 17.1893 59.6007 19.7311 59.855C20.8626 59.9691 21.2914 59.5177 21.9889 58.677C23.4871 56.8712 25.2747 55.3872 26.4578 53.3427C33.4273 41.3196 25.4194 42.0045 40.7378 43.4575C43.5794 43.7273 43.0007 46.41 41.8486 47.1365C41.1098 47.5983 40.3349 48.0135 39.4256 48.5324C37.9428 50.0943 38.4388 49.5598 37.5502 50.6288C36.9095 52.061 36.8114 53.5399 36.5324 54.8838C36.6202 56.9024 37.2557 58.1737 38.4285 59.8083C40.9032 63.2486 43.5226 62.0655 43.4761 63.9958C43.4502 65.1997 43.7654 66.7616 43.4916 67.9188C42.8354 70.7157 30.87 65.5733 31.4589 72.9159C31.6604 75.4118 31.7844 77.8403 32.4819 80.2688C32.859 81.5764 32.8952 82.9567 33.2517 84.2903C34.4761 88.8879 33.9853 89.3186 35.7574 91.197C36.7494 92.2504 37.9221 91.1503 37.8085 90.2474C37.4417 87.4453 35.8504 83.3926 35.7161 76.1279C35.7006 75.1887 35.0031 73.03 36.1397 72.6305C37.9531 71.987 40.4537 72.4904 42.3394 72.563C44.1787 72.6357 44.0805 74.4882 43.0782 74.9292C42.1844 75.3236 41.2338 74.9811 40.03 76.9634C38.9296 78.7743 38.9193 81.4882 39.7201 83.1124C40.8618 85.4112 42.8302 85.5876 43.4812 86.5372C44.7108 88.3171 43.0369 94.2845 44.1839 96.6819C44.871 98.1141 46.7464 98.4254 47.9037 97.3876C49.9186 95.5766 46.3176 87.0873 49.4329 85.6758C50.1252 85.3593 50.8434 84.9805 51.2877 84.337C53.2716 81.4623 53.2354 77.887 50.3371 75.9463C49.8463 75.6194 49.1333 75.3911 48.7768 74.8877C48.3118 74.2235 48.3635 72.8432 48.999 72.5423C49.6861 72.2154 50.926 72.4022 51.732 72.1531C53.0236 71.7587 55.3692 71.6913 56.4903 72.6097C57.6631 73.5697 56.7693 75.5675 56.5833 76.7714C56.2733 78.7432 56.2836 80.8292 56.1493 82.827C56.0925 83.6884 55.2607 90.6106 57.8801 89.3238C58.407 89.0643 58.5569 88.3949 58.6499 87.8085C62.1165 65.3606 59.957 70.4044 50.0788 69.05C47.697 68.7231 47.8624 66.1649 48.596 63.8869C48.8853 62.9892 49.5983 62.6207 50.9105 62.0292C54.9869 60.1974 54.1706 56.4042 54.1396 55.0499C54.0621 51.3085 52.3468 48.6362 50.1459 47.3545C49.1643 46.7837 48.5547 47.0327 48.8336 45.694C48.9266 45.2477 49.5983 44.6302 50.5799 44.6925C56.1338 45.0505 60.4271 44.5472 63.8731 45.092C65.2215 45.3048 66.8541 44.4226 66.8696 46.6124C66.8955 50.8675 62.5918 52.6577 62.69 54.7333C62.845 57.8935 66.7147 57.0373 68.3007 55.6933C71.7054 52.8082 72.3099 48.3352 72.8265 47.0587C73.1469 46.2699 73.3277 45.0816 74.2215 44.734C75.0171 44.4226 76.7685 44.6717 77.4505 45.2269C78.3959 45.9949 78.9952 48.9786 81.9814 50.141C82.6892 50.416 83.3092 50.3071 84.0119 50.4264C85.0761 50.6028 85.9544 51.1581 87.0807 51.1321C89.6794 51.0647 92.4848 48.3715 93.3682 46.5035C94.2982 44.5368 94.1381 41.6984 93.3011 39.4671L93.3063 39.4359ZM43.3934 60.0158C43.3831 60.2753 43.2694 60.405 42.9129 60.2805C37.2453 58.3086 39.3842 51.6406 42.9801 49.8815C43.0576 49.8452 43.1402 49.8089 43.2177 49.8452C43.6 50.0113 43.4089 59.6007 43.3934 60.0158ZM49.0196 79.1791C49.3813 79.9004 49.4794 80.7462 49.2005 81.4986C48.9421 82.1784 48.4152 82.7232 47.8262 83.1436C46.8704 83.8233 45.6046 84.2333 44.5248 83.7714C44.1012 83.5898 43.7395 83.2889 43.4244 82.9516C42.4789 81.9449 41.8176 80.6528 42.3084 79.2777C43.2849 76.5482 46.4209 76.4912 48.3532 78.2814C48.627 78.5357 48.8543 78.8418 49.0248 79.1791H49.0196ZM50.5954 52.7978C51.0965 53.6592 51.2825 54.7489 51.5822 55.6933C52.0058 57.0425 50.8847 60.2753 49.0196 59.8913C47.9863 59.6785 48.162 57.7171 48.131 56.8764C48.0638 55.19 47.9605 53.5087 47.9812 51.8223C48.0018 49.8141 50.1407 52.0091 50.6006 52.7978H50.5954ZM87.0859 46.8615C85.0348 47.5465 82.6738 46.052 82.8649 43.8466C83.1026 41.1224 84.3477 39.2647 85.5101 38.9014C86.4039 38.6212 90.2426 38.8184 90.2684 42.1342C90.2839 43.9971 88.8993 46.2596 87.091 46.8615H87.0859Z" fill="#2F3344"/>
</svg>
