<svg width="112" height="53" viewBox="0 0 112 53" fill="none" xmlns="http://www.w3.org/2000/svg">
<path d="M111.225 22.606C110.125 20.6115 107.992 20.2528 105.971 19.7649C103.515 19.1718 100.832 20.0328 98.8487 21.4868C96.7932 24.3661 98.4772 24.8396 92.769 24.787C91.0368 24.7727 92.079 22.166 92.6339 21.5107C93.3336 20.6832 94.2889 20.028 95.3167 19.5927C95.7655 19.4014 96.2287 19.2579 96.6919 19.1575C97.4591 18.9901 98.2987 18.9184 98.897 18.4209C99.2541 18.1196 99.4857 17.6987 99.6739 17.273C100.016 16.4934 100.18 15.4364 99.5001 14.915C99.0659 14.585 98.4579 14.6185 97.9223 14.7285C95.225 15.2642 93.4059 17.3208 91.5868 19.1671C90.1682 20.6115 90.2599 24.0935 88.3974 24.9257C87.2973 25.4184 85.565 25.2988 85.2417 24.1078C84.8026 22.4864 84.9426 20.5685 86.1103 19.1001C88.7931 15.7281 91.5289 13.6906 95.5869 12.0596C97.102 11.4522 99.9441 10.1082 97.488 8.41023C96.7932 7.93194 95.9006 7.82191 95.061 7.88409C92.0356 8.09932 89.5265 10.2277 87.4034 12.3801C85.98 13.8245 84.6048 15.3551 83.7025 17.163C82.8822 18.8036 82.2742 20.7694 82.2501 22.606C82.2308 24.1652 82.4238 24.6387 80.6481 24.9496C78.1149 25.3944 75.5383 24.9592 73.0437 25.6958C68.2764 25.3131 68.0206 25.3849 66.7806 24.8827C66.0278 24.5814 66.0761 23.0317 66.5634 22.3334C70.8482 16.2112 71.9001 15.1207 72.5997 14.1593C74.0907 12.117 75.133 9.98381 76.2524 7.74539C77.256 5.73177 80.156 3.12028 76.566 1.96759C74.636 1.34581 72.5853 1.88628 70.6262 1.63278C66.7275 1.12579 62.877 0.212262 58.9396 0.0352933C56.2713 -0.0842803 53.5982 0.13093 50.9298 0.221806C47.7645 0.331814 44.4689 -0.050816 41.3374 0.437044C39.2143 0.767067 33.9404 0.360521 35.1466 4.14861C35.8077 6.21484 38.5146 5.69352 40.2131 5.75092C42.4423 5.82266 44.686 5.7222 46.9153 5.70786C51.4896 5.67916 56.0638 5.65046 60.6333 5.62177C63.0121 5.60742 69.2752 4.82781 70.6986 7.30537C72.0255 9.61553 68.4067 12.4996 67.2341 14.1689C65.14 17.1534 62.3221 20.0567 61.4584 23.6391C60.6526 26.9585 57.5548 26.0354 54.8141 26.1215C53.6947 26.1597 50.9395 26.5519 50.2881 25.2892C49.7621 24.2705 51.8225 22.099 52.305 21.4055C53.7863 19.2866 57.0964 16.216 56.0107 13.3127C55.4703 11.8635 52.691 12.1409 51.4558 12.0213C49.4485 11.8252 47.4412 11.6291 45.4339 11.433C42.2059 11.1173 36.9802 10.0747 35.0308 13.4706C33.9741 15.312 36.0248 16.5843 37.0236 17.9091C38.2541 19.5497 39.4169 21.2476 40.8066 22.7638C41.5207 23.5434 42.9924 24.8253 42.5147 26.0162C41.9067 27.5372 39.6148 26.8245 38.4567 26.7241C34.4132 26.3654 30.3552 26.2123 26.2973 26.2649C24.8111 26.2841 22.6928 26.5137 22.0028 24.9592C21.1488 23.0269 21.8098 19.9371 21.7809 17.8709C21.7809 17.5935 21.7616 17.2874 21.5541 17.1008C21.3418 16.9095 21.0185 16.9239 20.729 16.9526C19.8942 17.0339 18.9485 17.1821 18.466 17.8661C18.0944 18.3922 18.1137 19.0905 18.1475 19.7314C18.2971 22.4242 19.6964 27.695 14.8567 26.3893C11.841 25.5762 12.6516 19.5066 12.5744 17.3113C12.56 16.8665 12.4828 16.3403 12.0823 16.1347C11.8507 16.0151 11.5756 16.039 11.3199 16.0773C10.7264 16.1681 10.1474 16.3356 9.59247 16.5651C9.47184 16.6178 9.34638 16.6751 9.26918 16.7756C9.16303 16.9191 9.16785 17.1152 9.18233 17.2969C9.31261 19.191 9.48149 21.0898 9.37051 22.9838C9.22575 25.4805 8.33792 25.0788 6.05561 25.1888C5.66477 25.2079 5.24015 25.2175 4.93134 24.9831C4.18343 24.4187 4.13036 21.8503 4.00008 20.908C3.86015 19.9036 4.01938 18.837 4.05315 17.8231C4.14001 15.0442 4.14966 12.2653 4.23169 9.48639C4.30406 6.99448 4.08693 4.21557 3.53686 1.78584C3.48861 1.5706 3.42106 1.33145 3.23287 1.21188C3.06882 1.10665 2.85168 1.12578 2.65868 1.1497C1.96867 1.22622 1.2835 1.30278 0.593497 1.38409C0.511468 1.39365 0.424615 1.40799 0.366713 1.46539C0.308811 1.52278 0.303985 1.61365 0.29916 1.69496C-0.226785 11.7248 1.37035 21.8264 0.858882 31.904C0.757553 33.865 0.241258 35.7974 0.130279 37.7918C-0.019302 40.5564 0.202656 43.3401 0.0434253 46.0998C-0.043428 47.6543 -0.164058 50.0697 1.48616 51.0071C2.08448 51.3467 2.99644 51.1506 3.23287 50.5097C3.32455 50.2562 3.30525 49.9788 3.28595 49.7109C3.00126 45.7602 3.34868 41.7665 3.07847 37.8253C3.07847 36.1465 3.04469 33.2767 4.93616 32.5067C10.2776 30.3256 9.43806 38.3036 10.654 41.1016C10.9001 41.666 11.4164 42.283 12.0147 42.1204C14.7265 41.3743 11.6721 33.7359 13.303 31.8036C14.297 30.627 16.6758 31.2201 17.9545 31.397C20.9124 31.8084 18.0269 38.2319 20.1017 39.3798C20.3189 39.4994 20.5698 39.5376 20.8158 39.5615C21.2308 39.5998 21.7085 39.5854 21.998 39.2889C22.2972 38.9828 22.2827 38.5045 22.2393 38.0788C22.0752 36.4096 21.1584 32.7889 22.3696 31.3492C23.0644 30.5218 24.6663 30.5935 25.6314 30.7083C27.0548 30.8757 28.1501 30.8709 29.6266 30.7274C31.6001 30.5409 39.1323 29.3547 40.0732 31.7749C40.5509 33.0089 38.7752 34.7212 38.1527 35.6921C36.2082 38.7341 34.225 43.0579 39.3976 43.4692C44.522 43.8757 49.7718 43.6701 54.8817 43.2444C55.5765 43.187 56.3147 43.1009 56.8455 42.6513C58.1869 41.5082 56.5367 40.212 55.9432 39.198C54.9154 37.457 54.1096 35.7304 52.7779 34.1664C52.2085 33.4967 50.4473 31.9758 51.1421 31.177C51.4992 30.7657 52.7586 30.9092 53.2218 30.9092C56.0156 30.8996 58.7611 31.1866 61.5597 30.9092C63.7793 31.4401 66.7082 35.3334 67.6877 37.3662C68.3391 38.7149 69.1594 39.9824 70.1485 41.0873C71.5237 42.6322 72.3923 44.4545 73.3862 46.2146C73.9653 47.2381 71.3645 48.4721 70.7083 48.6013C69.7432 48.7878 68.7492 48.673 67.7697 48.5678C61.9409 47.9412 56.0783 47.6064 50.2157 47.5729C47.2868 47.5538 44.3531 47.6112 41.4242 47.7451C40.5895 47.7834 36.6618 47.2286 36.2999 48.5104C36.1455 49.0557 35.8994 49.8544 36.2323 50.3566C36.4688 50.7105 36.8644 50.9306 37.2649 51.0836C38.3023 51.4758 39.4411 51.5093 40.5557 51.538C49.3616 51.7628 58.1531 52.1024 66.9639 52.2889C69.9507 52.3511 79.3598 54.7761 80.2621 50.2992C80.4358 49.4526 80.1511 48.563 79.6831 47.836C78.8146 46.492 77.589 45.4732 76.6288 44.2105C75.9532 43.3257 75.6541 42.3165 75.104 41.3695C73.8302 39.1693 72.1124 37.2657 70.4863 35.3238C70.0231 34.7738 68.3246 33.3437 68.2281 32.6693C68.0592 31.5118 69.473 31.177 70.4284 31.3253C74.6167 31.9758 78.7084 31.3109 81.8544 31.4449C83.9486 31.531 83.8858 32.8798 84.489 35.3956C85.7001 40.4368 85.9993 39.7528 87.6688 42.3261C89.0777 44.4927 91.1864 46.0759 93.5169 47.1808C94.757 47.7691 98.429 49.2135 99.476 47.8695C99.7607 47.506 99.6449 46.9512 99.3457 46.5972C99.0466 46.2433 98.6075 46.0472 98.1829 45.8511C95.4808 44.6027 92.88 43.0626 90.7762 40.9677C89.7677 39.9681 84.1175 32.0045 87.2538 31.1722C90.4288 30.3304 91.1284 31.1148 92.4747 33.7407C93.2901 35.3334 94.453 37.06 95.9826 38.0549C96.7353 38.5428 100.422 40.939 100.229 39.0641C100.195 38.7197 100.007 38.4088 99.8186 38.1123C99.1769 37.1031 98.4676 36.1226 97.5652 35.3382C96.7064 34.5921 95.1527 33.7502 94.9693 32.5067C94.7715 31.1531 96.3107 30.4883 97.5266 30.45C98.9018 30.4117 99.2589 31.177 99.973 32.1814C100.977 33.5924 102.197 34.262 103.949 34.4246C106.473 34.659 109.233 33.7742 110.656 31.6936C111.442 30.5457 111.761 29.1443 111.911 27.762C112.104 26.021 112.036 24.1796 111.187 22.649L111.225 22.606ZM49.2121 18.0526C48.3677 19.2579 47.5233 20.468 46.6499 21.6542C46.2494 22.1995 45.7765 22.1325 45.2168 22.0081C45.0962 21.9794 44.9707 21.879 44.8935 21.7738C44.2807 20.8937 43.7355 19.961 43.0551 19.1384C42.3748 18.3157 41.5448 17.6174 40.8259 16.8282C40.6329 16.6177 40.6956 16.3069 40.85 16.1347C41.1009 15.8525 41.4628 15.9003 41.8488 15.8764C50.0854 16.7947 46.2784 16.0247 48.7923 16.7517C49.2748 16.8904 49.5112 17.6317 49.2121 18.0622V18.0526ZM52.1168 38.3849C52.3291 38.7436 51.9383 39.2889 51.6102 39.2267C50.4039 38.9971 49.3858 38.2558 48.1457 38.0645C46.7898 37.8588 45.4243 37.8827 44.0684 37.744C42.1625 37.5479 41.5641 37.7584 41.1058 36.8639C41.2119 35.7782 41.7234 35.209 44.6474 31.4927C45.1589 30.8422 46.6837 30.7944 47.253 31.4162C49.4871 33.8411 49.3134 33.6689 52.1168 38.3897V38.3849ZM109.633 28.929C109.204 29.9717 108.301 30.8422 107.201 31.1292C106.067 31.4257 104.306 30.9522 102.907 30.0626C101.392 29.1012 100.306 27.6472 100.904 26.1454C101.71 24.1222 104.774 23.0699 106.762 23.2374C107.592 23.3091 108.427 23.6343 108.982 24.2513C109.329 24.634 109.551 25.117 109.71 25.6097C110.048 26.6858 110.062 27.8816 109.633 28.9242V28.929Z" fill="#2F3344"/>
</svg>
