<svg width="73" height="38" viewBox="0 0 73 38" fill="none" xmlns="http://www.w3.org/2000/svg">
<path d="M31.085 6.63747C30.9249 7.77493 29.6396 11.145 29.4842 12.3859C29.3665 13.3119 29.1593 14.1955 28.8862 15.0932C28.4437 16.5503 28.971 17.1895 27.2949 17.6784C25.5293 18.1907 23.2364 17.9181 21.4096 17.9228C19.3475 17.9275 17.5348 17.4951 16.2919 15.7184C14.7146 13.4622 14.0555 10.7831 10.8115 10.4165C7.6335 10.0546 1.8848 10.3836 0.971409 14.4352C0.236932 17.6925 -0.328046 19.1026 0.218104 21.7676C0.547677 23.3704 1.91776 25.6923 3.33022 26.7546C5.14287 27.6429 7.14855 27.8122 8.98474 28.3057C10.788 28.7851 13.5705 26.1389 14.6204 25.0108C15.8634 23.6759 16.612 22.1624 18.4764 22.0026C20.7882 21.8052 23.2505 22.1577 25.5528 22.3551C27.9964 22.5667 27.4973 24.7241 27.9964 26.8486C28.7544 30.0636 30.2752 32.3761 32.0454 35.4595C34.3477 39.4594 37.747 35.4877 36.6924 33.6264C35.2894 31.1447 33.5756 29.0718 33.3167 26.0637C33.2178 24.9403 32.8035 24.3716 32.794 23.3422C32.794 22.7594 33.4061 22.0261 33.957 21.8804C38.1096 20.7853 39.5409 23.4644 40.7273 26.9238C41.33 28.6864 41.8479 31.4737 43.4958 32.5923C46.09 34.3549 47.6484 31.0412 47.0269 28.912C46.476 27.0366 44.508 23.596 45.8451 21.7159C47.3706 19.5679 53.8632 20.3858 56.1278 20.2024C58.9245 19.9768 61.707 20.2212 64.499 20.1883C66.9472 20.1554 69.4237 23.2905 71.8955 20.9169C74.2402 18.6654 72.63 14.3177 69.1507 15.0791C67.7429 15.3894 66.9143 16.5926 65.6336 17.0486C64.659 17.3917 63.5385 17.1473 62.5215 17.1003C59.3718 16.9592 56.2314 16.5644 53.091 17.0439C51.2031 17.3306 49.2444 17.3259 47.3376 17.2883C46.3536 17.2695 45.2237 17.1473 44.6587 16.3388C43.8253 15.1449 44.3715 12.024 44.9365 10.7455C45.6097 9.21321 47.2529 8.37657 48.5618 7.44591C48.8301 7.2532 48.7501 6.58576 48.4299 6.42595C47.46 5.93712 46.9892 5.6363 46.1794 5.93712C42.9873 7.12629 39.9222 9.91826 39.7104 13.3542C39.6539 14.266 39.1689 17.4575 37.6246 17.7865C36.4617 18.0309 34.07 18.7924 33.0907 18.0262C32.0172 17.1896 32.3374 15.0086 32.5681 13.8947C33.2413 10.7079 34.6349 7.3472 37.5305 5.85252C38.99 5.10048 40.9157 4.69625 41.4901 3.15926C41.829 2.25211 41.4807 1.13345 40.6897 0.574115C37.7941 -1.4752 31.4805 3.8173 31.0897 6.63276L31.085 6.63747ZM12.5818 22.8769C11.3435 24.4656 8.05723 25.2505 6.1975 24.7288C3.8999 24.0801 3.45734 21.3493 3.21251 19.3423C2.9771 17.434 3.64566 16.0897 4.92629 14.6091C5.6231 13.8054 6.7154 13.4387 7.77945 13.3964C10.9904 13.2695 13.3022 15.2437 13.7588 18.4586C13.9707 19.9486 13.6411 21.5138 12.5865 22.8769H12.5818Z" fill="#2F3344"/>
</svg>
