<svg width="85" height="62" viewBox="0 0 85 62" fill="none" xmlns="http://www.w3.org/2000/svg">
<path d="M78.4213 16.3942C78.8718 15.9442 79.373 15.5497 79.9699 15.2497C83.4333 13.5219 80.0544 19.1831 79.4631 20.0609C78.303 21.7831 74.7665 23.6998 74.9805 25.9609C75.1776 28.0609 77.5371 27.3276 78.9394 27.3943C80.6908 27.4776 82.735 27.8498 84.3625 28.4832C84.5652 28.5609 84.7736 28.6554 84.8918 28.8276C85.0777 29.0998 84.9876 29.4665 84.8918 29.7832C84.7116 30.3554 84.5202 30.9332 84.1485 31.4054C81.9635 34.1499 73.4937 30.4276 77.6836 36.9665C78.5226 38.2777 81.3553 40.2332 81.0568 41.9332C80.7358 43.761 78.5114 43.4166 77.4132 42.4666C75.4873 40.8055 73.9217 38.2888 72.5308 36.1943C71.8606 35.1888 71.2074 34.1387 70.2331 33.411C68.8478 32.3776 65.7336 32.3999 64.0948 32.7776C63.7457 32.8554 63.5429 33.1276 63.6781 33.4832C64.1117 34.6554 64.6805 35.7943 65.4802 36.7499C67.8116 39.5332 69.929 42.4833 72.4294 45.1333C73.933 46.7277 74.9579 48.5889 76.3207 50.2666C77.6103 51.8611 78.9168 52.4667 77.8018 54.5389C76.5122 56.95 74.3779 53.5278 73.1727 52.4611C71.2749 50.7722 69.7094 48.8 67.8566 47.0611C67.5131 46.7388 67.1921 46.3777 66.9274 45.9888C65.5928 44.0333 63.9371 42.3333 62.3322 40.5999C61.0932 39.261 59.9613 36.9388 58.5535 35.8665C55.687 33.6721 51.1762 39.1388 49.1602 40.8944C47.5608 42.2888 45.8432 43.5166 44.0862 44.711C43.2077 45.311 41.3099 47.2166 40.2286 47.0166C39.8007 46.9389 39.5191 46.5388 39.2826 46.1777C37.2947 43.0888 35.2448 40.0332 33.3188 36.911C32.1081 34.9499 30.4017 31.7721 27.6029 33.7221C27.0904 34.0776 18.9417 42.7277 13.8959 49.4111C11.5476 52.5167 8.89515 55.3334 6.01747 57.9667C5.15022 58.7556 4.4294 60.4723 3.6072 61.0223C2.1036 62.0334 0.892839 60.4778 1.18568 58.9834C1.54046 57.1667 3.39322 55.6056 4.76166 54.5167C8.13491 51.8333 15.5628 43.1999 19.0431 39.3388C19.9216 38.361 26.0655 33.161 25.3616 31.6554C24.5901 29.9943 15.9458 30.6832 14.3239 30.8554C10.3312 31.2887 5.7359 30.6165 1.82766 29.8109C0.459209 29.5276 -0.886709 27.4109 0.75768 26.4887C1.2983 26.1831 1.96281 26.222 2.58227 26.272C8.28132 26.7109 14.2282 27.6943 19.9441 27.5998C21.0873 27.5831 22.7486 27.4331 23.2892 26.2498C24.0382 24.6109 22.5402 24.1109 21.6504 23.3053C19.3415 21.2275 17.3029 18.1775 15.2644 15.7553C13.2201 13.3275 11.2209 10.8608 8.9571 8.62745C7.93217 7.61633 0.194538 2.23296 2.08108 0.527393C5.61201 -2.67263 24.6295 21.2109 27.2481 24.072C27.8507 24.7331 28.4927 25.4165 29.3487 25.7054C31.6181 26.472 32.7444 23.2831 33.7637 21.922C35.5489 19.5331 37.4298 17.2108 39.3896 14.9608C40.1273 14.1164 40.8932 13.2664 41.8843 12.7386C42.2222 12.5608 42.5995 12.4164 42.9768 12.4664C45.8094 12.8164 47.2567 16.3275 48.9518 18.2553C51.4465 21.0942 56.5374 28.3109 60.9975 24.5387C62.3941 23.3553 63.4303 21.072 64.5059 19.5831C65.7448 17.8775 67.0119 16.1886 68.3072 14.5219C70.8976 11.1886 73.5951 7.93856 76.3996 4.77742C76.9853 4.12186 78.0271 3.43853 78.6353 4.07742C79.0464 4.5052 78.8549 5.19965 78.5959 5.73299C77.2218 8.56079 74.9354 11.5108 73.0995 14.1275C71.3481 16.622 68.9886 18.6498 67.2316 21.1442C66.5107 22.1664 65.0409 24.1498 65.6716 25.4998C66.5501 27.372 69.6418 26.7331 70.7174 25.5831C72.2267 23.9665 72.9475 22.2442 74.7214 20.772C76.1856 19.5553 77.0585 17.7108 78.4044 16.3608L78.4213 16.3942ZM39.5754 26.0331C41.0339 24.7553 42.7459 22.6775 45.7813 24.172C46.9076 24.7276 46.6035 24.9331 48.2817 25.4942C49.2672 25.822 50.3653 24.5998 49.8416 23.8609C49.0194 22.7053 48.0733 21.6276 47.0258 20.6942C45.9277 19.7109 45.4941 18.3053 44.4973 17.2886C44.2664 17.0553 43.478 16.8442 43.1739 17.0386C42.6446 17.3775 42.0251 17.6609 41.6365 18.122C39.581 20.5498 38.9897 20.6831 35.7798 24.3165C35.4532 24.6831 35.1716 25.1998 35.4701 25.5942C35.6446 25.822 35.9037 26.072 36.1684 26.1387C37.2721 26.4165 38.3815 26.2331 39.5923 26.0331L39.5754 26.0331ZM51.6943 32.6554C49.4136 32.2499 48.3886 32.8332 47.7636 33.5998C46.3951 35.2721 45.1787 36.6499 43.0894 36.1499C40.6454 35.5665 41.0621 34.5665 39.6768 33.161C38.742 32.2165 36.602 32.3665 35.3856 32.4776C35.0871 32.5054 34.7436 32.5832 34.6253 32.8499C34.5015 33.1332 34.6985 33.4443 34.8844 33.6943C36.5175 35.811 38.2802 37.8332 40.1667 39.7388C43.3823 42.9944 44.8634 39.861 47.5946 37.911C49.194 36.7665 50.5399 35.4776 51.9646 34.1276C52.4151 33.6999 52.4208 32.7832 51.6999 32.6554L51.6943 32.6554Z" fill="#2F3344"/>
</svg>
