<svg width="73" height="37" viewBox="0 0 73 37" fill="none" xmlns="http://www.w3.org/2000/svg">
<path d="M41.915 6.51175C42.0751 7.64713 43.3604 11.0111 43.5158 12.2497C43.6335 13.1739 43.8407 14.0559 44.1138 14.952C44.5563 16.4064 44.029 17.0445 45.7051 17.5324C47.4707 18.0438 49.7636 17.7717 51.5904 17.7764C53.6525 17.7811 55.4652 17.3495 56.7081 15.576C58.2854 13.324 58.9445 10.6498 62.1885 10.2838C65.3665 9.92258 71.1152 10.251 72.0286 14.2952C72.7631 17.5465 73.328 18.954 72.7819 21.6142C72.4523 23.214 71.0822 25.5317 69.6698 26.592C67.8571 27.4788 65.8514 27.6477 64.0153 28.1403C62.212 28.6188 59.4295 25.9774 58.3796 24.8514C57.1366 23.519 56.388 22.0083 54.5236 21.8488C52.2118 21.6517 49.7495 22.0036 47.4472 22.2006C45.0036 22.4118 45.5027 24.5652 45.0036 26.6859C44.2456 29.895 42.7248 32.2033 40.9546 35.281C38.6523 39.2736 35.2529 35.3092 36.3076 33.4513C37.7106 30.9741 39.4244 28.905 39.6833 25.9024C39.7822 24.7811 40.1965 24.2134 40.206 23.1859C40.206 22.6041 39.5939 21.8722 39.043 21.7268C34.8904 20.6336 33.4591 23.3079 32.2727 26.7609C31.67 28.5203 31.1521 31.3025 29.5042 32.4191C26.91 34.1785 25.3516 30.8708 25.9731 28.7455C26.524 26.8735 28.492 23.4392 27.1549 21.5626C25.6294 19.4185 19.1368 20.2349 16.8722 20.0519C14.0755 19.8267 11.293 20.0706 8.50104 20.0378C6.05278 20.005 3.57626 23.1343 1.10446 20.765C-1.24021 18.5177 0.369995 14.1779 3.84934 14.938C5.2571 15.2476 6.08573 16.4487 7.36636 16.9038C8.34096 17.2463 9.4615 17.0023 10.4785 16.9554C13.6282 16.8146 16.7686 16.4205 19.909 16.8991C21.7969 17.1853 23.7556 17.1806 25.6624 17.143C26.6464 17.1243 27.7763 17.0023 28.3413 16.1953C29.1747 15.0036 28.6285 11.8884 28.0635 10.6123C27.3903 9.08278 25.7471 8.24767 24.4382 7.31872C24.1699 7.12636 24.2499 6.46014 24.5701 6.30062C25.54 5.81269 26.0108 5.51242 26.8206 5.81269C30.0127 6.99967 33.0778 9.78653 33.2896 13.2161C33.3461 14.1263 33.8311 17.3119 35.3754 17.6404C36.5383 17.8843 38.93 18.6444 39.9093 17.8796C40.9828 17.0445 40.6626 14.8676 40.4319 13.7557C39.7587 10.5747 38.3651 7.22019 35.4695 5.72824C34.01 4.97757 32.0843 4.57409 31.5099 3.03991C31.171 2.13442 31.5193 1.01781 32.3103 0.459502C35.2059 -1.58606 41.5195 3.69675 41.9103 6.50706L41.915 6.51175ZM60.4182 22.7214C61.6565 24.3072 64.9428 25.0907 66.8025 24.5699C69.1001 23.9225 69.5427 21.1966 69.7875 19.1933C70.0229 17.2885 69.3543 15.9467 68.0737 14.4688C67.3769 13.6665 66.2846 13.3006 65.2206 13.2583C62.0096 13.1317 59.6978 15.1022 59.2412 18.3113C59.0293 19.7985 59.3589 21.3608 60.4135 22.7214H60.4182Z" fill="#2F3344"/>
</svg>
