<svg width="51" height="104" viewBox="0 0 51 104" fill="none" xmlns="http://www.w3.org/2000/svg">
<path d="M38.2502 64.4173C38.2684 65.0952 39.1742 65.9242 39.8388 65.8463C41.6141 65.6356 43.3439 65.8142 45.142 65.7043C46.5987 65.6173 48.0553 65.5303 49.512 65.4433C49.726 65.4295 49.9536 65.4112 50.1083 65.2646C50.254 65.1318 50.295 64.9211 50.3268 64.7242C50.4588 63.9227 50.5044 63.025 50.0082 62.3792C48.0599 59.8373 41.0497 63.9273 40.9359 60.3182C40.904 59.2923 40.2986 50.3704 41.7553 50.3795C43.2074 50.3887 44.6185 50.2101 46.0069 49.862C46.5714 49.9078 47.1404 49.8712 47.7094 49.7429C48.2283 49.6284 48.5788 49.2666 48.8747 48.8407C49.0158 48.63 49.0249 48.401 48.9612 48.1811C49.0022 47.627 48.729 47.027 48.1646 46.9262C45.7702 46.4911 43.3485 46.7476 40.9359 46.8621C40.9177 46.8621 40.8995 46.8667 40.8767 46.8713C40.7902 46.8804 39.8935 36.1036 41.3592 35.1968C41.6233 35.0365 41.9464 35.0182 42.256 35.0044C43.3986 34.954 44.5366 34.9082 45.6792 34.8578C47.8277 34.7662 49.2207 32.49 46.6943 31.4732C45.1101 30.832 42.2423 31.4824 40.5854 31.5785C39.8662 31.6198 39.1105 31.7388 38.5643 32.206C37.6629 32.9754 37.6675 34.3495 37.7403 35.5357C37.927 38.4532 38.1136 41.3706 38.3002 44.2881C38.3503 45.1034 38.851 46.885 38.1227 47.5033C37.5173 48.0163 36.5841 47.4071 35.9423 47.6132C35.5644 47.7323 35.2094 47.8468 34.8543 47.9613C33.862 47.9705 32.8286 48.0667 31.8909 48.1674C31.2809 47.8147 30.9486 47.1873 30.9577 46.4865C30.9668 45.685 31.0351 39.186 30.7301 37.9677C30.6391 37.6059 30.6755 37.1982 30.7119 36.8181C30.9168 34.7113 30.935 32.6228 30.8348 30.5068C30.7666 29.0183 30.2749 26.3252 31.0442 25.0016C31.9364 23.4719 35.3368 23.3757 36.8936 22.8536C39.5885 21.9513 42.1331 20.3254 44.573 18.8918C46.9128 17.5224 48.3876 14.5088 49.4801 12.1088C50.6546 9.53486 51.3146 6.64487 50.8503 3.85105C50.6182 2.4633 49.5712 1.20379 48.2556 2.29841C46.8718 3.448 47.2086 7.30438 46.6624 8.99441C44.532 15.608 37.9133 16.3957 32.1049 18.0674C30.2157 18.6125 29.2917 17.3988 29.2006 15.6034C29.146 14.5362 28.5588 12.031 29.1415 11.1012C29.7423 10.1486 31.1489 10.4875 32.114 10.4325C32.9652 10.3867 33.9393 9.99745 34.126 9.1593C34.1897 8.87992 34.1533 8.59137 34.1169 8.31199C34.0349 7.67079 33.9485 7.02501 33.8665 6.3838C33.8483 6.26014 33.8255 6.11816 33.73 6.0403C33.6435 5.9716 33.5251 5.96244 33.4159 5.96244C32.032 5.93496 29.6012 7.00211 28.5998 5.77924C27.6984 4.68003 28.3494 2.33964 28.231 1.02975C28.2083 0.805328 28.1855 0.57175 28.049 0.388549C27.7531 -0.00991389 27.1385 0.0908378 26.6788 0.264879C26.2372 0.42976 25.8093 0.626705 25.3951 0.855706C25.1311 0.997687 24.8625 1.17173 24.735 1.44195C24.6349 1.65721 24.6395 1.90912 24.644 2.14728C24.6804 3.46633 25.2904 5.96243 24.2161 6.84638C22.9324 7.90436 21.0797 7.05248 20.0373 8.00971C19.5411 8.46313 19.5684 9.24173 19.6322 9.91042C19.6458 10.0661 19.664 10.2264 19.7369 10.3593C19.9053 10.657 20.2877 10.7348 20.6291 10.7669C21.5714 10.8539 22.5227 10.8127 23.4605 10.6524C26.2645 10.1623 25.7001 13.1577 25.7957 15.3148C25.8412 16.3316 25.8275 17.4217 25.2676 18.2736C23.8747 20.3941 20.5836 19.0522 18.963 18.0766C16.7871 16.7667 15.2849 14.7057 13.8237 12.6768C12.8905 11.3806 12.0803 10.0432 11.4931 8.55473C11.0014 7.30439 11.006 5.66016 10.4506 4.49683C9.38089 2.26178 9.44462 3.26938 8.50234 1.1076C8.49323 1.1076 8.48413 1.10303 8.47503 1.09845C3.97302 -1.34729 6.95919 7.35018 7.22776 8.89365C7.91512 12.805 9.94535 15.063 12.0939 18.1728C13.2775 19.8903 14.7478 21.4429 16.5959 22.4368C17.5519 22.9498 18.6808 23.4032 19.7642 23.5406C20.9614 23.6917 22.1722 23.4032 23.3603 23.8154C26.0324 24.736 25.3359 27.3558 25.345 29.5542C25.3678 34.9036 25.2859 40.2577 25.1038 45.6026C25.04 47.4758 25.0764 48.1262 22.9779 47.9934C22.5364 47.9659 20.6518 47.7644 20.4015 47.3888C20.2604 47.1735 20.2649 46.8987 20.274 46.6423C20.3241 45.3965 20.183 44.1141 20.2012 42.8591C20.2057 42.5202 20.2012 42.1447 19.9827 41.8882C19.6003 41.4393 18.8082 41.6637 18.4942 42.163C18.1801 42.6622 18.2074 43.2942 18.2438 43.8851C18.3394 45.4423 18.8856 48.0392 17.52 48.6987C16.5686 49.1613 14.4291 48.9689 13.7145 48.1216C12.7358 46.9628 13.2638 44.3522 13.2319 42.9508C13.1864 40.8989 13.1227 38.8425 13.3048 36.7952C13.4504 35.1968 13.3048 32.4075 11.3701 31.6701C10.0045 31.148 8.32936 31.0244 6.91822 31.1938C5.4479 32.5175 3.27655 30.6351 2.8168 32.8014C2.48449 34.3678 3.75452 34.3952 5.37506 34.812C6.27638 34.6426 8.18824 33.8685 8.88926 34.725C9.20336 35.1052 9.29895 35.6181 9.37634 36.1036C9.91348 39.4882 10.1593 42.9233 10.1092 46.3491C10.0409 51.2498 5.88945 49.9903 2.33883 50.4208C2.23868 51.1215 2.32062 51.8452 2.58009 52.5001C2.63471 52.6375 2.70299 52.7795 2.8259 52.8619C3.3858 53.2375 5.50707 52.9856 6.31279 53.068C7.60103 53.2009 8.78457 53.0131 10.0273 53.4299C11.1334 53.8008 10.7465 62.6311 10.4734 63.7578C9.41731 68.1821 4.75598 66.5745 1.48759 66.428C1.14618 66.4142 0.777463 66.4142 0.48613 66.5929C0.0992038 66.8356 -0.046463 67.3486 0.012714 67.802C0.071891 68.2554 0.304049 68.6676 0.527101 69.0661C0.768361 69.492 1.02783 69.9317 1.44662 70.1744C1.86086 70.4126 2.36159 70.4126 2.83956 70.4034C5.04731 70.376 7.30969 70.234 9.48104 70.4767C10.8512 70.6324 12.4991 70.9027 13.0863 69.231C13.2684 68.718 13.2547 68.1638 13.2411 67.6234C13.1227 62.5945 13.1637 57.561 13.3685 52.5322C13.4186 51.2864 13.7919 51.3231 14.807 51.1444C15.0482 51.1032 17.6839 50.9658 17.7021 51.0345C18.7764 54.9642 17.9934 55.3855 18.5488 57.0985C18.6535 57.4236 19.4046 57.9137 19.7642 57.8908C22.0721 57.758 20.8476 54.2817 20.6063 53.0864C20.101 50.5536 22.987 51.2543 24.8944 51.4284C24.817 51.4192 25.0127 61.5136 25.04 62.3884C25.1356 65.4158 25.5453 68.4203 25.7228 71.4431C25.823 73.1744 26.4648 76.5223 24.8898 77.8048C24.0796 78.4689 22.6593 78.4551 21.6897 78.7208C20.4971 79.0459 19.3272 79.4765 18.2119 80.0123C15.9905 81.0841 13.9694 82.5772 12.3579 84.4596C9.89983 87.3312 8.47047 91.1326 8.51599 94.9295C8.54331 97.0226 8.17459 99.2943 8.88016 101.319C9.75416 103.828 13.3366 104.163 13.3503 101.113C13.3549 99.4729 12.5491 97.8149 12.449 96.1523C12.3397 94.3341 12.5628 92.4929 13.1136 90.7571C14.065 87.7572 16.0679 85.0778 18.74 83.4428C20.0646 82.6321 21.5577 82.0734 23.1008 81.9497C23.9111 81.8856 24.7988 81.9726 25.4088 82.513C26.9018 83.8458 26.4421 87.3083 24.817 88.3205C23.2875 89.2732 20.9022 88.7007 19.5229 89.8457C19.0404 90.2441 18.6762 90.8395 18.7035 91.467C18.8173 94.1142 23.5333 91.925 24.8853 93.5234C26.4148 95.3325 24.7669 98.021 25.7775 99.8943C26.4785 101.19 28.6862 101.671 29.8288 100.677C31.3356 99.3675 29.9017 95.6806 30.0974 93.8761C30.4115 90.9815 35.9969 94.7646 35.8603 90.7937C35.7374 87.2809 31.5677 89.493 30.3569 87.6152C29.2143 85.8519 29.6832 82.5314 31.8955 81.9634C32.9515 81.6932 34.0668 81.936 35.0956 82.2932C40.2167 84.0748 44.1815 88.8518 45.0145 94.2333C45.2148 95.5295 45.3605 97.05 46.4712 97.737C47.764 98.5386 49.5803 97.4943 50.0537 96.0378C50.5271 94.586 50.0264 92.9967 49.3436 91.6319C47.3088 87.5831 45.0646 83.3237 41.1544 80.7314C37.6766 78.4231 34.8179 78.3544 33.5934 77.9788C32.7012 77.704 31.7999 77.9925 30.9122 77.8048C28.536 77.3055 30.7119 70.376 30.1884 58.5274C30.1293 57.1672 30.3387 55.8527 30.3978 54.5016C30.4342 53.6085 29.9927 52.0329 30.7165 51.3597C31.0078 51.0895 31.4266 51.0345 31.8181 50.9933C33.7527 50.7963 35.6964 50.7231 37.6402 50.7689C37.7813 50.7689 37.9361 50.7826 38.0362 50.8834C38.1273 50.975 38.1364 51.1169 38.1455 51.2498C38.3867 55.6466 38.1364 59.993 38.2502 64.399V64.4173Z" fill="white" fill-opacity="0.14"/>
</svg>
