<svg width="47" height="40" viewBox="0 0 47 40" fill="none" xmlns="http://www.w3.org/2000/svg">
<path d="M39.4329 1.49484C37.4942 -0.350036 38.3251 -0.278507 40.4893 0.588065C43.1396 1.64808 49.0089 6.36334 46.304 14.4813C44.9193 18.6363 39.1378 20.5603 37.2735 23.014C37.3116 23.4796 37.3406 23.9593 37.3597 24.4537L39.0066 24.829C39.0101 24.8346 41.099 28.2082 40.9754 28.4156C40.853 28.6217 39.961 30.2094 39.9503 30.2285L41.2223 30.4356C41.1924 30.4716 38.4799 33.7512 39.4579 36.9086C36.423 35.7953 35.1907 31.7556 35.1906 29.9822C35.1905 28.2918 30.8654 30.5355 28.5421 31.1052C28.1117 32.6314 27.3184 36.8883 27.3146 36.9086L23.5014 40C23.5009 39.9953 23.4999 39.9907 23.4993 39.986L23.5 40L19.6854 36.9086C19.6828 36.8945 18.8879 32.6312 18.4573 31.1045C16.1334 30.5339 11.8109 28.2923 11.8108 29.9822C11.8107 31.7556 10.5783 35.7953 7.54349 36.9086C8.52267 33.7474 5.8026 30.4639 5.77912 30.4356L7.05111 30.2285C7.03954 30.2079 6.14804 28.6211 6.02601 28.4156C5.90195 28.2095 7.98388 24.8467 7.99484 24.829L9.63959 24.4537C9.65871 23.9601 9.68714 23.481 9.72513 23.0161C7.86045 20.5625 2.08047 18.6376 0.696042 14.4826C-2.00895 6.36295 3.86047 1.64969 6.51074 0.588065C8.67467 -0.278376 9.50552 -0.349773 7.56714 1.49484C5.0794 3.86309 3.31121 8.95643 6.22352 12.1313C8.58743 14.7082 11.6 13.8616 12.6509 13.4517C14.8174 10.1506 17.722 8.75859 19.9108 8.17498C20.7984 7.51663 22.016 6.3544 22.2711 4.7948C22.6654 2.37419 23.4411 1.71067 23.4986 1.66434V1.66155C23.4989 1.66179 23.4993 1.66239 23.5 1.66294C23.5012 1.66202 23.5021 1.66155 23.5021 1.66155V1.66434C23.5631 1.71361 24.3356 2.38016 24.7289 4.7948C24.984 6.35418 26.2009 7.51658 27.0886 8.17498C29.2773 8.75846 32.1811 10.1508 34.3477 13.4517C35.3978 13.8615 38.4119 14.709 40.7765 12.1313C43.6887 8.95643 41.9206 3.86308 39.4329 1.49484ZM22.4186 25.7504L22.5681 30.6219L21.4248 31.417V36.1253L23.1036 37.4548L23.2392 24.0687L22.4186 25.7504ZM23.8964 37.4548L25.5766 36.1253V31.417L24.434 30.6219L24.5814 25.7504L23.7608 24.0687L23.8964 37.4548ZM6.56846 30.8067C7.99639 32.8316 8.19545 34.8568 8.18053 35.9551C9.0863 33.1145 7.56963 31.0445 7.56505 31.0383L6.56846 30.8067ZM39.435 31.0383C39.435 31.0383 37.9123 33.1102 38.8195 35.9551C38.8046 34.8568 39.0036 32.8316 40.4316 30.8067L39.435 31.0383ZM8.21043 25.2405C8.20816 25.2445 6.64406 28.0173 6.57194 28.0536C6.50443 28.085 7.44389 29.5182 7.45726 29.5386C7.6994 27.8087 8.16434 26.264 9.0881 25.1024L8.21043 25.2405ZM37.9119 25.1024C38.8357 26.264 39.3006 27.8087 39.5428 29.5386C39.5571 29.5167 40.4949 28.0859 40.4281 28.0536C40.3561 28.0175 38.7915 25.2438 38.7896 25.2405L37.9119 25.1024ZM28.8654 9.73254C27.9004 10.8094 25.834 11.5544 23.4402 11.5545C21.0778 11.5544 19.0354 10.8291 18.0539 9.77509C11.4196 13.2654 11.3633 23.6161 11.3956 25.2335C15.2227 27.7833 19.2597 28.1396 21.5708 28.0857V27.1559C17.6208 26.3937 14.8796 25.5113 14.151 24.2172C13.9617 23.8798 18.202 25.724 21.5708 25.7462V24.3358L23.4965 22.562V22.6297C23.4977 22.6073 23.4988 22.5844 23.5 22.562L25.4285 24.3358V25.7462C28.7973 25.7246 33.0389 23.8802 32.8504 24.2172C32.1219 25.5115 29.3795 26.3936 25.4285 27.1559V28.0857C27.7389 28.1398 31.7761 27.784 35.6037 25.2349C35.6363 23.6156 35.5821 13.1819 28.8654 9.73254ZM18.193 16.3827C18.2019 16.4175 19.6375 22.052 19.5846 24.1489C18.7239 20.7758 18.1914 17.9877 18.193 16.3827ZM29.3863 13.8095C29.3796 13.8402 27.896 20.6051 26.7179 22.8055C27.6035 18.7591 28.5273 15.5128 29.3863 13.8095ZM16.1595 12.464C16.1595 12.464 17.8777 19.201 17.8147 21.7027C16.7897 17.6895 16.1578 14.3723 16.1595 12.464ZM31.2669 14.0209C31.2669 14.0209 30.0165 19.7306 29.0247 21.5841C29.7694 18.1826 30.5454 15.4525 31.2669 14.0209ZM7.50177 1.24304C5.92777 1.55822 2.03375 5.57678 3.36381 10.4315C4.36889 14.0994 6.93801 15.4542 8.56164 16.3925C10.1088 17.288 10.2438 18.7264 10.3058 19.17C10.4912 18.3649 10.7103 17.6168 10.9561 16.9212C11.0243 15.8538 10.8107 15.0274 10.8107 15.0274H10.8087C10.7616 15.0231 5.36912 14.5226 4.31728 9.9976C3.29254 5.5863 6.16337 2.28803 7.50177 1.24304ZM39.4976 1.24304C40.836 2.28801 43.7068 5.58626 42.6821 9.9976C41.6283 14.5306 36.2188 15.0249 36.1907 15.0274H36.1893C36.1893 15.0274 35.9746 15.8534 36.0425 16.9205C36.2884 17.6161 36.5074 18.3642 36.6928 19.1693C36.7548 18.7254 36.8909 17.2879 38.4377 16.3925C40.0614 15.4542 42.6305 14.0989 43.6355 10.4308C44.9653 5.57619 41.0715 1.55815 39.4976 1.24304ZM23.4423 2.54809C23.4519 2.46545 22.822 3.60016 22.6578 5.22796C22.4947 6.84556 21.3871 7.86317 21.3726 7.87644C21.3928 7.89386 22.2508 8.62977 23.4423 8.62977C24.6413 8.62962 25.202 7.83132 25.2081 7.82274C25.1785 7.808 22.9167 6.66562 23.4423 2.54949V2.54809Z" fill="url(#paint0_linear_45_644)"/>
<defs>
<linearGradient id="paint0_linear_45_644" x1="23.5" y1="19.9466" x2="31.5733" y2="40.877" gradientUnits="userSpaceOnUse">
<stop stop-color="#FFCB36"/>
<stop offset="1" stop-color="#A8882B"/>
</linearGradient>
</defs>
</svg>
