<svg width="22" height="22" viewBox="0 0 22 22" fill="none" xmlns="http://www.w3.org/2000/svg">
<g clip-path="url(#clip0_45_2028)">
<g filter="url(#filter0_d_45_2028)">
<path d="M17.875 6.875H15.125V4.8125C15.125 3.71848 14.6904 2.66927 13.9168 1.89568C13.1432 1.1221 12.094 0.6875 11 0.6875C9.90598 0.6875 8.85677 1.1221 8.08318 1.89568C7.3096 2.66927 6.875 3.71848 6.875 4.8125V6.875H4.125C3.76033 6.875 3.41059 7.01987 3.15273 7.27773C2.89487 7.53559 2.75 7.88533 2.75 8.25V17.875C2.75 18.2397 2.89487 18.5894 3.15273 18.8473C3.41059 19.1051 3.76033 19.25 4.125 19.25H17.875C18.2397 19.25 18.5894 19.1051 18.8473 18.8473C19.1051 18.5894 19.25 18.2397 19.25 17.875V8.25C19.25 7.88533 19.1051 7.53559 18.8473 7.27773C18.5894 7.01987 18.2397 6.875 17.875 6.875ZM11.6875 13.6323V15.8125C11.6875 15.9948 11.6151 16.1697 11.4861 16.2986C11.3572 16.4276 11.1823 16.5 11 16.5C10.8177 16.5 10.6428 16.4276 10.5139 16.2986C10.3849 16.1697 10.3125 15.9948 10.3125 15.8125V13.6323C9.85379 13.4701 9.46718 13.151 9.221 12.7313C8.97483 12.3117 8.88493 11.8185 8.9672 11.3389C9.04948 10.8594 9.29862 10.4244 9.67061 10.1108C10.0426 9.79722 10.5135 9.62522 11 9.62522C11.4865 9.62522 11.9574 9.79722 12.3294 10.1108C12.7014 10.4244 12.9505 10.8594 13.0328 11.3389C13.1151 11.8185 13.0252 12.3117 12.779 12.7313C12.5328 13.151 12.1462 13.4701 11.6875 13.6323ZM13.75 6.875H8.25V4.8125C8.25 4.08315 8.53973 3.38368 9.05546 2.86796C9.57118 2.35223 10.2707 2.0625 11 2.0625C11.7293 2.0625 12.4288 2.35223 12.9445 2.86796C13.4603 3.38368 13.75 4.08315 13.75 4.8125V6.875Z" fill="white"/>
</g>
</g>
<defs>
<filter id="filter0_d_45_2028" x="1.75" y="0.6875" width="18.5" height="21.5625" filterUnits="userSpaceOnUse" color-interpolation-filters="sRGB">
<feFlood flood-opacity="0" result="BackgroundImageFix"/>
<feColorMatrix in="SourceAlpha" type="matrix" values="0 0 0 0 0 0 0 0 0 0 0 0 0 0 0 0 0 0 127 0" result="hardAlpha"/>
<feOffset dy="2"/>
<feGaussianBlur stdDeviation="0.5"/>
<feComposite in2="hardAlpha" operator="out"/>
<feColorMatrix type="matrix" values="0 0 0 0 0.0509804 0 0 0 0 0.0705882 0 0 0 0 0.145098 0 0 0 1 0"/>
<feBlend mode="normal" in2="BackgroundImageFix" result="effect1_dropShadow_45_2028"/>
<feBlend mode="normal" in="SourceGraphic" in2="effect1_dropShadow_45_2028" result="shape"/>
</filter>
<clipPath id="clip0_45_2028">
<rect width="22" height="22" fill="white"/>
</clipPath>
</defs>
</svg>
