<svg width="46" height="53" viewBox="0 0 46 53" fill="none" xmlns="http://www.w3.org/2000/svg">
<g filter="url(#filter0_d_45_736)">
<path d="M31.963 46.25L23.66 49.8629C23.4482 49.9516 23.22 50 23 50C22.78 50 22.5518 49.9516 22.34 49.8629L14.037 46.25V22.1049L21.2808 25.2097L22.3563 25.6693C22.3807 25.6854 22.4134 25.6935 22.4378 25.7016C22.4622 25.7097 22.4785 25.7178 22.503 25.7258C22.5437 25.742 22.5845 25.75 22.6252 25.7661C22.7474 25.7903 22.8696 25.8065 23 25.8065C23.1304 25.8065 23.2526 25.7903 23.3748 25.7661C23.4155 25.75 23.4563 25.742 23.497 25.7258C23.5215 25.7178 23.5378 25.7097 23.5622 25.7016C23.5866 25.6935 23.6193 25.6854 23.6437 25.6693L24.7192 25.2097L31.963 22.1049V46.25ZM10.7778 20.7016V44.8306L1.96958 40.9919C1.38295 40.7338 1 40.1532 1 39.5161V16.508L10.7778 20.7016ZM45 39.5161C45 40.1532 44.6171 40.7338 44.0304 40.9919L35.2222 44.8306V20.7016L45 16.508V39.5161ZM31.1481 0C34.7423 0 37.6667 2.89436 37.6667 6.45161C37.6667 7.95484 37.3185 9.37906 36.698 10.6496L43.5415 13.6291L43.3622 13.7097H43.3541L33.9592 17.7339L33.8778 17.6935L30.1758 15.8616C29.4419 16.0363 28.6761 16.129 27.8889 16.129H27.6037C27.3906 16.7232 27.0638 17.2643 26.6494 17.7266L29.9992 19.3871L30.0563 19.4113L23 22.4355L15.9437 19.4113L16.0007 19.3871L19.3505 17.7266C18.9362 17.2643 18.6093 16.7231 18.3963 16.129H18.1111C17.3238 16.129 16.558 16.0363 15.8241 15.8616L12.1222 17.6935L12.0408 17.7339H12.0407L2.64594 13.7097H2.62963L2.45855 13.6291L9.30192 10.6496C8.68138 9.37907 8.33333 7.95483 8.33333 6.45161C8.33333 2.89436 11.2577 0 14.8519 0C18.2513 0 21.2473 1.72741 23 4.3395C24.7527 1.72741 27.7487 0 31.1481 0ZM23 12.9032C22.1013 12.9032 21.3704 13.6266 21.3704 14.5161C21.3704 15.4056 22.1013 16.129 23 16.129C23.8987 16.129 24.6296 15.4056 24.6296 14.5161C24.6296 13.6266 23.8987 12.9032 23 12.9032ZM14.8519 3.22581C13.0544 3.22581 11.5926 4.67258 11.5926 6.45161C11.5926 10.0089 14.517 12.9032 18.1111 12.9032H18.3963C18.8884 11.5323 19.9852 10.4468 21.3704 9.95966V9.67742C21.3704 6.12016 18.446 3.22581 14.8519 3.22581ZM31.1481 3.22581C27.554 3.22581 24.6296 6.12016 24.6296 9.67742V9.95966C26.0148 10.4468 27.1116 11.5323 27.6037 12.9032H27.8889C31.483 12.9032 34.4074 10.0089 34.4074 6.45161C34.4074 4.67258 32.9456 3.22581 31.1481 3.22581Z" fill="#C9D4E8"/>
</g>
<defs>
<filter id="filter0_d_45_736" x="0" y="0" width="46" height="53" filterUnits="userSpaceOnUse" color-interpolation-filters="sRGB">
<feFlood flood-opacity="0" result="BackgroundImageFix"/>
<feColorMatrix in="SourceAlpha" type="matrix" values="0 0 0 0 0 0 0 0 0 0 0 0 0 0 0 0 0 0 127 0" result="hardAlpha"/>
<feOffset dy="2"/>
<feGaussianBlur stdDeviation="0.5"/>
<feComposite in2="hardAlpha" operator="out"/>
<feColorMatrix type="matrix" values="0 0 0 0 0.0509804 0 0 0 0 0.0705882 0 0 0 0 0.145098 0 0 0 1 0"/>
<feBlend mode="normal" in2="BackgroundImageFix" result="effect1_dropShadow_45_736"/>
<feBlend mode="normal" in="SourceGraphic" in2="effect1_dropShadow_45_736" result="shape"/>
</filter>
</defs>
</svg>
