<svg width="43" height="41" viewBox="0 0 43 41" fill="none" xmlns="http://www.w3.org/2000/svg">
<g filter="url(#filter0_d_45_692)">
<path d="M40.8653 32.0505C40.2861 29.8907 39.6806 27.7308 38.9435 25.5969C38.0484 22.9946 37.0743 20.4183 35.995 17.8941C35.0999 15.8123 33.7309 14.0427 31.7565 12.8197C31.4406 12.6115 31.1247 12.4033 30.8088 12.1951C31.5196 11.1282 31.2563 10.1393 30.6771 9.20248C29.8347 7.79725 28.9923 6.36599 28.0972 4.98678C27.0178 3.29529 25.5699 1.99415 23.6744 1.21346C23.0426 0.953236 22.3581 0.797099 21.7 0.588916C21.0418 0.510847 20.1468 0.562893 20.1468 0.562893C18.6462 0.849144 17.2246 1.39562 16.1189 2.43654C15.3818 3.13916 14.671 3.91984 14.1444 4.7786C13.0914 6.4961 12.1437 8.23964 11.2223 10.0352C10.9853 10.4776 10.9853 11.0761 10.9853 11.5966C10.9853 11.8828 11.1959 12.1431 11.3276 12.4293C10.7221 12.7936 10.0902 13.0799 9.56373 13.4702C7.79989 14.7714 6.6942 16.5149 5.90442 18.4406C4.24589 22.5002 2.74531 26.6118 1.63962 30.8535C1.32371 32.0766 1.24473 33.3777 1.1131 34.6528C1.06045 35.2774 1.32371 35.7718 1.98186 36.032C2.98224 36.4224 3.9563 36.8388 4.90404 37.3332C5.64116 37.7235 6.22033 37.5414 6.7995 37.073C7.66826 36.3703 8.24743 35.4335 8.74762 34.4447C8.90558 34.1584 9.03721 33.8461 9.24782 33.4298C9.32679 33.69 9.37945 33.8461 9.4321 34.0023C9.82699 34.809 10.1955 35.6157 10.6168 36.3964C10.88 36.8908 11.3012 37.073 11.8804 37.073C14.7499 37.073 17.6195 37.0469 20.489 37.0469V36.7347V16.619C17.6721 15.8904 15.2238 14.4851 13.1441 12.4814C12.9598 12.2992 12.7755 12.1431 12.6175 11.9609C12.2226 11.5706 12.3016 11.0761 12.8545 10.972C13.7232 10.7899 14.592 10.6077 15.4871 10.5557C17.3562 10.4256 19.2253 10.3735 21.621 10.2694C23.5165 10.3995 25.9121 10.5557 28.3341 10.7378C28.5974 10.7639 28.887 10.8419 29.1502 10.92C29.861 11.1282 30.0453 11.7527 29.4925 12.2472C28.5974 13.0278 27.676 13.8085 26.7019 14.4851C25.175 15.526 23.4901 16.2026 21.7 16.645V37.0469C24.3589 37.0469 26.9915 37.0469 29.6504 37.099C30.7824 37.125 31.3879 36.6566 31.8618 35.7978C31.9408 35.6677 32.0197 35.5116 32.0724 35.3555C32.3357 34.7049 32.5726 34.0543 32.8358 33.3517C32.9412 33.5599 33.0201 33.742 33.0991 33.8982C33.5993 35.0172 34.2311 36.032 35.1262 36.8648C35.837 37.5154 36.6005 37.7756 37.5482 37.3072C38.5749 36.7867 39.6016 36.2923 40.6283 35.7718C40.7863 35.6938 40.8916 35.5116 40.9442 35.3294C41.2075 34.2365 41.1285 33.1175 40.8653 32.0505Z" fill="#D7DFEE"/>
</g>
<defs>
<filter id="filter0_d_45_692" x="0.106567" y="0.545898" width="42" height="40" filterUnits="userSpaceOnUse" color-interpolation-filters="sRGB">
<feFlood flood-opacity="0" result="BackgroundImageFix"/>
<feColorMatrix in="SourceAlpha" type="matrix" values="0 0 0 0 0 0 0 0 0 0 0 0 0 0 0 0 0 0 127 0" result="hardAlpha"/>
<feOffset dy="2"/>
<feGaussianBlur stdDeviation="0.5"/>
<feComposite in2="hardAlpha" operator="out"/>
<feColorMatrix type="matrix" values="0 0 0 0 0.0509804 0 0 0 0 0.0705882 0 0 0 0 0.145098 0 0 0 1 0"/>
<feBlend mode="normal" in2="BackgroundImageFix" result="effect1_dropShadow_45_692"/>
<feBlend mode="normal" in="SourceGraphic" in2="effect1_dropShadow_45_692" result="shape"/>
</filter>
</defs>
</svg>
